<?xml version="1.0" standalone="no"?>
<!DOCTYPE svg PUBLIC "-//W3C//DTD SVG 20010904//EN"
 "http://www.w3.org/TR/2001/REC-SVG-20010904/DTD/svg10.dtd">
<svg version="1.0" xmlns="http://www.w3.org/2000/svg"
 width="258.000000pt" height="258.000000pt" viewBox="0 0 258.000000 258.000000"
 preserveAspectRatio="xMidYMid meet">
<metadata>
Created by potrace 1.16, written by Peter Selinger 2001-2019
</metadata>
<g transform="translate(0.000000,258.000000) scale(0.100000,-0.100000)"
fill="#000000" stroke="none">
<path d="M371 2564 c-14 -10 -21 -23 -18 -35 3 -10 1 -19 -3 -21 -13 -5 -23
-98 -10 -98 12 0 67 30 143 77 42 26 46 31 32 43 -9 7 -13 21 -10 31 5 15 0
17 -28 15 -19 -2 -39 -6 -46 -10 -7 -4 -18 -3 -25 3 -9 7 -19 6 -35 -5z"/>
<path d="M655 2568 c-24 -9 -126 -70 -292 -174 -19 -12 -20 -17 -10 -49 5 -19
16 -35 24 -35 7 0 44 19 81 42 114 71 184 106 276 138 49 17 100 36 115 42 14
6 32 10 39 9 6 -1 12 3 12 8 0 6 7 7 17 4 11 -4 14 -3 9 5 -4 7 -3 12 3 12 5
0 11 -3 13 -7 2 -5 32 -3 68 3 59 11 48 12 -130 12 -115 0 -207 -4 -225 -10z"/>
<path d="M1525 2574 c123 -17 348 -80 430 -121 28 -14 93 -52 146 -84 53 -32
103 -59 112 -59 8 0 20 15 27 33 10 30 9 34 -25 63 -19 17 -62 46 -95 63 -33
18 -60 34 -60 36 0 13 70 -21 126 -59 36 -25 67 -46 70 -46 9 0 1 111 -9 117
-6 3 -7 1 -4 -4 4 -6 1 -13 -6 -16 -8 -3 -13 4 -12 22 0 14 -5 26 -12 26 -6 0
-15 4 -20 9 -5 5 -2 6 6 1 9 -5 12 -3 9 6 -2 8 -21 15 -41 17 -34 3 -38 1 -43
-27 -4 -16 -13 -32 -21 -35 -8 -3 -44 9 -81 26 l-67 32 -230 2 c-126 1 -216 0
-200 -2z"/>
<path d="M1220 2513 c-365 -73 -795 -257 -941 -403 -47 -47 -58 -64 -74 -125
-28 -105 -42 -237 -39 -375 3 -103 9 -149 38 -265 58 -234 103 -351 191 -500
29 -51 66 -123 81 -161 15 -38 31 -73 35 -78 5 -6 9 -17 9 -25 0 -10 -8 -8
-28 10 l-27 24 24 -27 c14 -16 26 -26 29 -24 2 2 20 -13 39 -35 19 -21 58 -56
85 -76 45 -32 51 -35 60 -19 5 9 14 13 20 10 7 -4 8 -2 4 5 -4 6 -2 18 4 26
18 21 58 -7 58 -41 0 -18 -4 -22 -11 -15 -6 6 -17 11 -25 11 -10 0 -10 -3 2
-16 9 -8 16 -18 17 -22 0 -4 2 -15 4 -25 3 -14 0 -16 -9 -8 -7 6 -15 8 -19 5
-3 -3 -3 3 0 15 3 12 1 21 -5 21 -6 0 -17 3 -26 6 -11 4 -16 0 -16 -14 0 -30
53 -69 118 -87 209 -60 330 -78 500 -72 152 5 265 21 270 38 2 5 8 7 13 3 13
-8 100 7 94 16 -3 5 -1 11 5 15 5 3 10 2 10 -4 0 -24 137 26 188 68 19 17 21
23 10 46 -8 18 -14 22 -19 13 -4 -7 -11 -9 -15 -5 -16 15 13 29 34 16 18 -11
27 -7 89 43 91 76 155 142 127 134 -45 -14 -21 45 54 130 125 141 232 338 306
564 57 173 79 288 79 425 0 176 -35 274 -132 370 -58 55 -71 40 -48 -57 53
-226 47 -441 -17 -660 -38 -128 -147 -370 -161 -356 -2 2 9 32 26 67 49 102
119 328 136 436 29 188 6 461 -45 550 -66 113 -476 309 -846 404 -81 21 -211
33 -256 24z m60 -373 c6 -11 16 -20 22 -20 5 0 8 9 5 20 -5 18 0 20 56 19 81
-1 165 -13 178 -26 5 -5 11 -25 13 -44 2 -19 5 -41 7 -49 5 -18 38 -50 53 -50
6 0 4 -5 -4 -10 -13 -8 -12 -10 3 -10 9 0 17 5 17 10 0 6 7 10 15 10 8 0 15 6
15 13 0 8 4 7 10 -3 5 -8 10 -10 10 -4 0 11 55 40 63 33 2 -2 11 2 20 10 14
11 17 11 17 0 0 -9 3 -10 8 -3 4 6 16 14 27 18 12 4 7 -5 -15 -24 -19 -16 -40
-30 -46 -30 -5 0 -20 -9 -32 -21 -13 -11 -32 -22 -44 -24 -11 -3 -23 -7 -27
-11 -3 -4 2 -4 12 -1 21 8 22 0 2 -20 -9 -8 -22 -12 -30 -9 -13 4 -13 2 -5
-14 5 -10 10 -21 10 -24 0 -9 -24 -2 -32 9 -4 5 -11 6 -15 1 -4 -5 -3 -10 2
-13 30 -11 35 -20 27 -44 -5 -13 -6 -34 -1 -46 10 -26 7 -27 -24 -12 -16 7
-13 3 8 -16 17 -15 43 -31 58 -37 18 -6 26 -16 23 -24 -3 -8 -1 -14 4 -14 5 0
16 -7 24 -16 16 -15 37 -22 93 -31 79 -12 202 56 242 136 19 36 34 184 19 175
-5 -3 -8 1 -8 9 0 21 -59 82 -99 102 -30 15 -122 50 -143 54 -5 0 -25 2 -45 2
-21 1 -30 3 -20 6 9 2 15 9 12 14 -10 16 81 10 144 -10 76 -24 152 -72 189
-120 34 -43 46 -72 30 -68 -7 1 -13 -11 -13 -27 -1 -16 -6 -31 -12 -33 -9 -3
-9 -12 -2 -31 32 -82 29 -176 -5 -235 -21 -36 -26 -53 -21 -80 6 -31 4 -36
-17 -42 -47 -15 -48 -23 -12 -76 19 -28 34 -59 34 -69 0 -10 3 -25 6 -33 3 -8
-16 5 -41 30 -31 29 -51 41 -57 35 -6 -6 -4 -19 8 -36 16 -25 43 -160 44 -216
0 -24 0 -24 -14 -4 -8 11 -22 49 -31 84 -15 58 -40 120 -49 120 -2 0 5 -35 15
-77 17 -71 25 -136 12 -105 -11 29 -18 8 -15 -50 2 -60 2 -62 -12 -38 -15 24
-15 23 -16 -30 l-1 -55 -20 40 -19 40 4 -80 c2 -48 1 -72 -4 -60 -6 12 -6 1
-3 -29 4 -33 3 -47 -4 -43 -13 8 -26 105 -24 175 2 32 -2 52 -8 52 -15 0 -13
-101 3 -179 13 -59 13 -64 -4 -68 -10 -3 -21 -16 -24 -29 -5 -17 -11 -21 -23
-17 -11 4 -14 3 -9 -6 5 -7 -3 -15 -23 -22 -17 -6 -29 -14 -26 -18 2 -4 -6 -7
-18 -7 -12 1 -21 -4 -20 -11 2 -7 -4 -10 -12 -7 -8 4 -15 1 -15 -7 0 -7 -3
-10 -6 -7 -3 4 -21 0 -40 -8 -19 -8 -34 -11 -34 -7 0 5 -4 3 -8 -4 -9 -15
-151 -55 -165 -46 -6 3 -7 1 -4 -4 7 -12 -38 -27 -53 -18 -5 3 -11 1 -14 -4
-7 -11 -116 -13 -116 -3 0 4 -10 7 -22 8 -32 1 -130 29 -124 35 3 3 -7 4 -22
4 -28 -1 -73 14 -83 28 -3 4 -17 10 -30 12 -54 10 -126 53 -133 80 -4 15 -11
23 -17 19 -8 -4 -7 -10 2 -16 11 -8 11 -9 -1 -5 -8 2 -15 8 -15 13 0 15 -16
34 -28 34 -7 0 -6 -4 3 -10 8 -5 12 -12 8 -15 -3 -3 -18 5 -33 19 -24 23 -27
32 -31 123 -3 54 -5 118 -6 142 l0 43 -15 -31 c-17 -35 -38 -42 -30 -11 3 11
-1 26 -8 33 -9 10 -10 19 -3 31 5 10 8 20 5 23 -3 2 -16 -24 -29 -59 -17 -45
-24 -57 -26 -40 -2 12 2 38 8 58 7 19 9 38 6 41 -3 4 -6 2 -6 -3 -1 -5 -7 -31
-15 -59 -25 -91 -17 -4 10 101 30 117 30 120 8 103 -15 -13 -15 -12 -4 9 18
33 10 35 -23 7 -16 -14 -31 -25 -33 -25 -8 0 12 29 45 64 18 20 30 36 27 36
-13 0 -51 -24 -77 -48 -27 -25 -28 -25 -28 -4 0 34 31 102 51 112 10 6 16 17
13 25 -4 8 -9 13 -13 11 -3 -2 -17 2 -31 10 -18 9 -20 13 -8 14 22 0 33 19 19
33 -6 6 -11 24 -11 39 0 16 -7 42 -15 59 -12 22 -13 34 -5 49 7 14 7 20 0 20
-5 0 -10 11 -10 24 0 14 -5 28 -10 31 -6 4 -8 11 -5 16 4 5 2 9 -2 9 -5 0 -9
23 -10 51 0 28 -3 53 -6 56 -3 2 1 22 8 44 8 21 11 39 8 39 -15 0 56 63 111
100 81 52 236 92 236 60 0 -5 -3 -9 -7 -8 -19 4 -82 -15 -77 -23 3 -5 -2 -6
-10 -3 -9 3 -16 1 -16 -5 0 -6 -5 -11 -11 -11 -5 0 -7 6 -4 13 4 6 1 5 -7 -3
-7 -8 -20 -15 -28 -15 -8 0 -14 -5 -13 -11 1 -5 -8 -16 -20 -24 -21 -12 -21
-12 -7 6 14 18 13 17 -10 -1 -33 -27 -40 -37 -32 -50 3 -5 -2 -4 -11 3 -17 15
-38 8 -36 -11 0 -9 2 -9 6 1 2 6 10 12 16 12 7 -1 2 -9 -11 -20 -14 -11 -20
-24 -16 -31 5 -8 3 -9 -6 -4 -7 4 -16 2 -21 -6 -5 -8 -3 -17 4 -21 7 -4 7 -8
2 -8 -20 0 -6 -91 22 -143 38 -69 114 -117 210 -130 17 -3 36 -8 42 -11 5 -4
12 -2 16 4 3 5 15 10 26 10 10 0 19 4 19 9 0 4 -34 9 -76 10 -130 4 -225 67
-226 150 -1 53 14 71 30 36 10 -21 10 -25 0 -19 -21 13 37 -59 65 -79 36 -27
150 -35 210 -14 47 16 92 13 80 -6 -8 -13 50 22 85 51 24 20 22 20 -17 -4 -37
-22 -43 -23 -36 -8 4 11 8 29 9 42 1 12 8 27 16 32 8 5 10 10 4 10 -6 0 -18
17 -28 37 -12 25 -20 33 -25 24 -6 -10 -10 -9 -14 4 -5 10 -3 14 4 9 7 -4 10
-2 8 5 -3 7 -9 12 -14 12 -6 0 -19 9 -30 19 -11 11 -42 28 -68 40 -26 12 -47
22 -47 23 0 1 14 3 30 3 17 1 30 -2 30 -7 0 -5 6 -9 13 -9 6 0 25 -11 41 -25
33 -28 35 -29 56 -14 12 8 10 9 -7 4 -13 -3 -23 -2 -23 3 0 17 12 21 36 10 24
-11 33 -28 13 -28 -5 0 -7 -5 -4 -11 9 -14 55 39 62 73 3 17 10 25 17 21 6 -3
6 0 -1 8 -15 15 -17 58 -4 78 6 9 36 17 78 21 125 13 141 12 153 -10z m729
-262 c-1 -1 3 -14 10 -27 11 -19 11 -22 -1 -15 -7 4 -5 -2 5 -13 11 -13 14
-22 7 -25 -6 -2 -11 -14 -12 -28 -2 -28 -40 -75 -78 -95 -29 -15 -200 -19
-200 -4 0 5 -9 9 -21 9 -12 0 -19 5 -16 13 2 6 -8 22 -22 34 -32 28 -12 31 45
7 48 -20 164 -15 210 9 34 18 62 66 66 115 1 17 4 29 6 27 2 -2 3 -5 1 -7z
m-845 -1384 c3 -8 11 -12 17 -8 8 4 7 9 -2 15 -9 5 9 8 44 8 58 -1 74 -12 36
-24 -20 -7 -20 -7 -1 -20 10 -8 32 -12 48 -10 16 2 33 4 38 4 4 1 6 8 3 16 -4
8 -2 17 4 20 5 4 9 3 8 -2 -3 -17 1 -33 9 -32 32 5 172 -3 168 -10 -3 -4 -38
-11 -78 -15 -120 -10 -142 -18 -111 -42 10 -7 14 -14 8 -14 -5 0 -5 -4 2 -8 8
-5 9 -12 2 -22 -8 -11 -12 -12 -16 -2 -7 18 -25 14 -22 -5 5 -31 -11 -63 -32
-63 -15 0 -19 7 -20 33 -1 17 -1 37 0 42 1 6 -6 1 -14 -9 -8 -11 -15 -26 -15
-33 0 -7 -4 -13 -10 -13 -5 0 -7 7 -3 15 3 9 2 15 -3 14 -15 -3 -44 12 -44 23
0 6 9 8 21 5 13 -3 19 -1 16 6 -3 7 -10 11 -16 9 -6 -1 -11 3 -11 8 0 13 32 9
42 -5 5 -6 8 -5 8 4 0 7 6 11 14 8 21 -8 8 21 -15 33 -10 6 -33 10 -52 10 -55
0 -127 12 -127 21 0 5 24 9 53 10 l52 1 -45 13 -45 13 35 1 c26 1 31 4 20 11
-12 8 -11 10 6 10 12 0 25 -7 28 -16z"/>
<path d="M1264 1741 c-80 -59 -327 -331 -331 -365 -3 -20 -2 -20 20 5 12 14
31 37 42 52 14 20 22 23 32 15 8 -6 16 -8 20 -4 3 3 1 6 -5 6 -20 0 -13 28 8
35 11 3 20 11 20 16 0 6 5 7 10 4 6 -3 13 0 16 9 6 16 35 10 31 -7 -1 -6 4
-11 11 -12 7 0 17 -7 22 -15 15 -24 63 27 58 62 -3 15 -1 25 4 22 5 -3 7 6 4
21 -4 20 -1 25 8 22 9 -4 12 0 9 13 -3 10 0 21 5 24 6 3 8 14 5 24 -4 16 1 18
33 14 25 -3 35 -1 30 6 -10 16 50 -6 65 -24 9 -11 9 -14 -2 -14 -8 0 -6 -6 7
-16 10 -8 14 -13 9 -10 -13 6 -17 -31 -4 -39 5 -3 6 1 3 9 -3 9 -1 16 5 16 6
0 10 -3 9 -7 -1 -5 2 -18 6 -31 7 -20 10 -21 24 -10 14 11 15 10 9 -6 -6 -16
-5 -17 8 -6 13 11 20 9 43 -11 15 -13 30 -28 34 -34 4 -5 8 -6 8 -1 0 5 29
-22 65 -59 36 -38 65 -72 65 -76 0 -5 10 -14 23 -20 21 -12 21 -11 7 7 -100
129 -333 380 -371 400 -25 12 -30 11 -65 -15z"/>
<path d="M1155 1283 c-11 -3 -24 -9 -30 -15 -7 -6 -7 -8 0 -6 15 4 75 -23 75
-34 0 -5 4 -7 9 -4 5 3 12 -1 15 -10 3 -9 12 -14 18 -12 17 6 38 -16 38 -39 1
-17 1 -17 11 0 5 9 17 17 25 17 9 0 28 9 42 19 15 10 31 20 37 22 5 2 9 10 7
17 -2 6 6 12 17 12 25 0 38 20 20 31 -26 16 -58 9 -94 -22 -20 -18 -33 -24
-29 -15 5 12 2 15 -10 10 -9 -3 -32 3 -51 15 -35 20 -59 24 -100 14z"/>
<path d="M830 865 c7 -8 29 -15 49 -15 20 0 88 -6 151 -14 63 -8 124 -14 135
-15 65 -2 94 -8 109 -23 10 -10 12 -19 6 -23 -5 -3 -10 -21 -9 -38 l1 -32 10
35 c5 19 14 39 19 44 5 6 4 16 -4 25 -10 14 -10 14 5 3 11 -9 18 -10 23 -2 8
13 48 13 62 -1 9 -9 11 -7 7 7 -5 18 3 19 133 21 140 2 253 18 253 35 0 6 -35
8 -92 4 -90 -7 -123 -10 -273 -23 -124 -11 -275 -7 -423 12 -62 8 -127 15
-144 15 -26 0 -29 -2 -18 -15z"/>
<path d="M131 2083 c-28 -32 -64 -83 -79 -113 l-27 -55 0 -521 0 -522 50 -73
c28 -41 76 -99 107 -131 54 -54 58 -57 90 -47 28 8 35 6 51 -12 17 -21 17 -21
17 21 0 46 11 73 47 112 l25 26 -47 73 c-144 220 -245 562 -245 829 0 139 14
238 51 357 16 53 29 99 29 104 0 21 -21 6 -69 -48z"/>
<path d="M2572 1505 c-3 -48 -49 -213 -83 -300 -48 -124 -114 -242 -196 -354
-64 -86 -74 -106 -65 -120 41 -55 52 -78 49 -98 -3 -19 -1 -21 14 -13 10 6 34
10 55 10 33 0 45 8 103 69 36 37 81 93 99 123 l32 54 -3 330 c-1 181 -3 316
-5 299z"/>
<path d="M20 626 c0 -142 -3 -215 -10 -211 -6 4 -10 -20 -10 -64 0 -41 4 -71
10 -71 6 0 10 7 10 15 0 9 26 28 61 45 71 34 86 30 120 -34 27 -51 24 -67 -21
-100 -22 -17 -40 -34 -40 -39 0 -5 8 -3 18 4 14 11 13 10 -2 -9 -20 -23 -32
-30 -21 -12 3 6 2 10 -4 10 -19 0 -111 -99 -111 -119 0 -20 6 -21 92 -21 l92
0 -35 38 c-19 20 -42 46 -50 57 -13 19 -13 19 4 6 17 -14 22 -11 59 27 37 40
57 54 43 32 -8 -13 1 -13 25 0 15 8 24 6 38 -8 10 -10 51 -44 92 -77 41 -32
78 -64 82 -69 4 -6 8 -7 8 -3 0 20 -71 109 -154 192 -64 63 -98 107 -116 145
-13 30 -25 57 -26 58 -2 2 -12 1 -23 -3 -12 -3 -19 -11 -16 -16 4 -5 -6 -9
-20 -9 -14 0 -24 -4 -21 -9 7 -11 -37 -41 -59 -41 -9 0 -15 9 -15 23 1 17 18
31 79 65 72 40 79 47 85 80 3 21 12 49 20 64 14 25 12 28 -57 105 -38 43 -83
98 -98 122 l-29 45 0 -218z"/>
<path d="M2553 788 c-11 -18 -51 -67 -90 -108 -64 -68 -69 -77 -57 -95 7 -11
15 -38 18 -60 6 -44 15 -54 99 -96 l57 -29 0 210 c0 115 -2 210 -4 210 -2 0
-13 -15 -23 -32z"/>
<path d="M2412 448 c3 -15 1 -26 -5 -25 -6 1 -14 -16 -19 -38 -5 -22 -13 -44
-18 -49 -6 -6 -10 -20 -10 -33 0 -26 -17 -32 -22 -7 -3 16 -55 -33 -172 -163
-66 -74 -75 -99 -12 -37 24 24 50 44 57 44 8 -1 1 -12 -16 -26 -38 -33 -12
-20 36 18 20 15 41 28 46 28 5 0 18 7 29 15 17 13 14 13 -18 0 -53 -21 -47 -8
7 16 35 15 49 17 65 9 25 -13 26 -21 3 -13 -12 4 -11 0 4 -11 17 -13 27 -14
40 -7 16 9 16 10 2 11 -9 0 -19 7 -23 15 -4 12 -2 13 13 6 21 -12 49 -43 35
-40 -30 5 -37 -2 -19 -21 20 -22 55 -27 55 -8 0 6 3 8 6 5 4 -4 -14 -31 -40
-62 l-48 -55 96 0 c60 0 96 4 96 10 0 31 -39 75 -120 139 -49 39 -90 76 -90
81 0 19 20 56 44 81 13 15 22 30 19 33 -4 3 -2 6 3 7 5 0 19 2 31 3 12 1 20 0
18 -3 -2 -4 19 -18 46 -33 50 -26 50 -26 47 -5 -2 15 -26 35 -72 63 -39 23
-76 50 -84 61 -13 17 -14 16 -10 -9z"/>
<path d="M2090 123 l-86 -98 -322 -2 c-299 -1 -321 0 -313 15 18 33 68 70 96
69 15 0 23 -2 18 -6 -5 -3 -17 -19 -27 -36 l-19 -30 25 23 c13 12 30 22 37 22
7 0 9 5 6 10 -3 6 -1 10 4 10 17 0 13 -15 -9 -35 -11 -10 -20 -23 -20 -29 0
-6 12 1 26 16 33 32 27 54 -18 66 -40 11 -74 -6 -124 -60 -27 -31 -41 -38 -70
-38 -30 0 -43 7 -75 44 -52 58 -87 73 -128 52 -37 -19 -39 -32 -9 -63 12 -13
19 -25 17 -28 -3 -2 -88 -5 -189 -5 -114 -1 -178 -5 -169 -11 20 -13 1269 -12
1269 1 0 6 9 10 19 10 19 0 101 100 101 122 0 5 12 25 26 44 47 61 21 36 -66
-63z"/>
</g>
</svg>
